<?xml version="1.0" encoding="UTF-8" standalone="no"?>
<svg
   version="1.0"
   width="700.000000pt"
   height="700.000000pt"
   viewBox="0 0 700.000000 700.000000"
   preserveAspectRatio="xMidYMid meet"
   id="svg10"
   sodipodi:docname="options.svg"
   inkscape:version="1.1 (ce6663b3b7, 2021-05-25)"
   xmlns:inkscape="http://www.inkscape.org/namespaces/inkscape"
   xmlns:sodipodi="http://sodipodi.sourceforge.net/DTD/sodipodi-0.dtd"
   xmlns="http://www.w3.org/2000/svg"
   xmlns:svg="http://www.w3.org/2000/svg">
  <defs
     id="defs14" />
  <sodipodi:namedview
     id="namedview12"
     pagecolor="#505050"
     bordercolor="#ffffff"
     borderopacity="1"
     inkscape:pageshadow="0"
     inkscape:pageopacity="0"
     inkscape:pagecheckerboard="1"
     inkscape:document-units="pt"
     showgrid="false"
     inkscape:zoom="0.57"
     inkscape:cx="465.78947"
     inkscape:cy="467.54386"
     inkscape:window-width="1296"
     inkscape:window-height="704"
     inkscape:window-x="70"
     inkscape:window-y="27"
     inkscape:window-maximized="1"
     inkscape:current-layer="svg10" />
  <g
     transform="translate(0.000000,700.000000) scale(0.100000,-0.100000)"
     fill="#FFFFFF"
     stroke="none"
     id="g8"
     style="fill:#000000;fill-opacity:1">
    <path
       d="M1280 4359 c-30 -5 -82 -23 -115 -40 -33 -18 -104 -54 -157 -81 -71 -36 -103 -59 -118 -83 -11 -18 -45 -54 -76 -81 -43 -36 -64 -64 -90 -121 -18 -40 -49 -99 -69 -131 -47 -76 -65 -166 -65 -322 0 -160 18 -244 69 -329 22 -36 54 -96 70 -132 22 -50 44 -79 85 -114 31 -26 65 -62 76 -81 16 -25 46 -46 123 -84 56 -27 126 -63 156 -79 65 -35 162 -51 304 -51 143 0 223 20 326 79 48 27 107 58 133 69 75 33 213 178 264 277 23 44 57 112 77 150 45 87 62 201 54 355 -8 135 -28 209 -77 287 -22 34 -51 88 -65 118 -34 77 -184 227 -263 262 -31 15 -81 41 -110 60 -67 42 -110 59 -186 73 -70 12 -268 11 -346 -1z m357 -459 c37 -18 77 -52 137 -118 106 -116 120 -153 114 -306 -5 -125 -19 -156 -125 -269 -109 -118 -142 -132 -308 -132 -125 0 -132 1 -182 29 -71 39 -187 161 -218 228 -48 104 -43 271 10 363 13 22 61 77 107 121 109 105 134 114 293 111 104 -2 127 -6 172 -27z"
       id="path2"
       style="fill:#000000;fill-opacity:1" />
    <path
       d="M3315 4355 c-75 -15 -87 -20 -153 -62 -29 -18 -82 -46 -118 -63 -86 -39 -229 -180 -275 -272 -17 -35 -46 -88 -64 -118 -51 -86 -66 -148 -72 -305 -5 -151 9 -255 45 -324 109 -209 128 -238 211 -321 67 -68 102 -94 175 -131 50 -25 118 -60 151 -77 70 -37 153 -52 285 -52 131 0 215 15 285 51 33 17 101 52 151 78 125 64 244 182 305 302 23 46 51 97 62 112 79 112 90 482 18 616 -10 20 -42 81 -71 135 -73 138 -191 257 -311 315 -46 22 -110 56 -142 74 -38 22 -82 38 -127 46 -89 14 -278 13 -355 -4z m337 -445 c41 -15 73 -40 144 -112 121 -123 127 -136 132 -278 5 -165 -9 -198 -136 -322 -117 -113 -150 -128 -287 -128 -146 0 -183 15 -293 124 -132 128 -137 140 -137 306 0 165 6 179 129 300 113 111 154 129 293 130 78 0 115 -5 155 -20z"
       id="path4"
       style="fill:#000000;fill-opacity:1" />
    <path
       d="M5395 4364 c-11 -2 -43 -9 -71 -15 -28 -5 -73 -24 -100 -41 -27 -17 -85 -49 -129 -71 -98 -49 -243 -188 -277 -264 -11 -26 -40 -79 -63 -118 -68 -109 -80 -163 -79 -350 0 -190 14 -256 76 -354 22 -36 52 -89 64 -118 34 -75 185 -225 262 -260 31 -15 81 -41 109 -59 74 -47 110 -60 197 -75 98 -15 311 -7 384 16 30 9 75 29 101 45 25 16 78 44 116 61 102 48 248 194 291 294 17 39 47 94 67 124 51 73 58 105 64 281 6 193 -8 273 -66 369 -22 36 -54 96 -70 133 -22 48 -44 78 -80 108 -27 23 -62 60 -77 81 -21 30 -50 51 -128 89 -56 28 -126 64 -156 80 -30 16 -84 34 -120 40 -62 9 -273 12 -315 4z m332 -468 c72 -39 187 -161 218 -229 45 -97 43 -255 -3 -343 -30 -55 -162 -191 -216 -221 -49 -27 -56 -28 -186 -28 -125 0 -139 2 -182 25 -28 15 -82 63 -131 116 -106 116 -121 157 -115 307 5 132 22 166 135 284 111 114 135 124 308 120 111 -2 124 -4 172 -31z"
       id="path6"
       style="fill:#000000;fill-opacity:1" />
  </g>
</svg>