<?xml version="1.0" encoding="utf-8"?>
<!-- Generator: Adobe Illustrator 16.0.0, SVG Export Plug-In . SVG Version: 6.00 Build 0)  -->
<!DOCTYPE svg PUBLIC "-//W3C//DTD SVG 1.1//EN" "http://www.w3.org/Graphics/SVG/1.1/DTD/svg11.dtd">
<svg version="1.1" id="GEARS" xmlns="http://www.w3.org/2000/svg" xmlns:xlink="http://www.w3.org/1999/xlink" x="0px" y="0px"
	 width="1800px" height="1800px" viewBox="0 0 1800 1800" enable-background="new 0 0 1800 1800" xml:space="preserve">
<g>
	<path fill="#333333" d="M1094.819,1135.051l-108.863-17.528c-9.449-34.07-22.999-66.744-40.445-97.562l64.601-89.408
		c8.963-12.402,7.593-29.477-3.227-40.295l-97.074-97.083c-10.828-10.832-27.9-12.188-40.297-3.227l-89.409,64.601
		c-30.817-17.446-63.496-30.991-97.557-40.44L665.01,705.239c-2.435-15.106-15.472-26.212-30.774-26.212H496.934
		c-15.302,0-28.339,11.105-30.774,26.212l-17.535,108.864c-34.057,9.449-66.731,22.995-97.555,40.445l-89.409-64.601
		c-12.399-8.958-29.474-7.597-40.295,3.222l-97.083,97.083c-10.819,10.823-12.187,27.897-3.225,40.3l64.599,89.408
		c-17.448,30.826-30.994,63.5-40.443,97.562l-108.866,17.528c-15.106,2.436-26.214,15.472-26.214,30.774v137.306
		c0,15.303,11.106,28.339,26.212,30.774l108.868,17.533c9.454,34.062,22.997,66.735,40.443,97.557l-64.599,89.409
		c-8.962,12.401-7.595,29.474,3.225,40.297l97.083,97.083c10.819,10.819,27.892,12.181,40.295,3.223l89.409-64.605
		c30.822,17.446,63.496,30.992,97.555,40.445l17.535,108.867c2.433,15.107,15.472,26.213,30.774,26.213h137.302
		c15.302,0,28.339-11.105,30.774-26.213l17.537-108.871c34.062-9.449,66.736-22.995,97.549-40.437l89.417,64.601
		c12.402,8.962,29.478,7.601,40.297-3.223l97.083-97.079c10.819-10.823,12.185-27.895,3.222-40.297l-64.604-89.413
		c17.446-30.813,30.991-63.487,40.445-97.557l108.868-17.533c15.105-2.436,26.212-15.472,26.212-30.774v-137.306
		C1121.036,1150.522,1109.926,1137.486,1094.819,1135.051z M1058.697,1276.58l-102.915,16.576
		c-12.571,2.026-22.647,11.492-25.447,23.916c-9.362,41.506-25.665,80.833-48.459,116.882c-6.806,10.767-6.375,24.591,1.083,34.914
		l61.078,84.529l-59.535,59.53l-84.534-61.074c-10.323-7.457-24.147-7.888-34.909-1.083
		c-36.058,22.795-75.376,39.093-116.878,48.446c-12.419,2.805-21.89,12.88-23.917,25.451l-16.576,102.92h-84.204l-16.576-102.915
		c-2.026-12.571-11.495-22.646-23.916-25.447c-41.495-9.357-80.822-25.66-116.889-48.455c-10.765-6.805-24.588-6.374-34.907,1.083
		l-84.525,61.074l-59.535-59.535l61.069-84.524c7.458-10.323,7.889-24.143,1.085-34.909
		c-22.796-36.066-39.097-75.394-48.454-116.887c-2.803-12.424-12.878-21.89-25.45-23.916L72.474,1276.58v-84.204l102.912-16.571
		c12.574-2.026,22.651-11.497,25.452-23.921c9.351-41.488,25.653-80.812,48.454-116.887c6.804-10.767,6.373-24.586-1.085-34.909
		l-61.069-84.525l59.535-59.536l84.525,61.076c10.321,7.458,24.147,7.888,34.909,1.083c36.073-22.806,75.398-39.108,116.882-48.457
		c12.424-2.801,21.895-12.88,23.921-25.452l16.576-102.911h84.204l16.576,102.915c2.027,12.571,11.498,22.651,23.917,25.451
		c41.502,9.354,80.82,25.656,116.878,48.453c10.767,6.805,24.59,6.375,34.913-1.083l84.53-61.076l59.53,59.536l-61.073,84.53
		c-7.458,10.323-7.889,24.146-1.083,34.913c22.799,36.054,39.101,75.376,48.459,116.878c2.8,12.424,12.876,21.895,25.447,23.921
		l102.915,16.571V1276.58z"/>
	<path fill="#333333" d="M565.583,928.422c-168.759,0-306.052,137.293-306.052,306.052s137.293,306.053,306.052,306.053
		c168.763,0,306.061-137.294,306.061-306.053S734.346,928.422,565.583,928.422z M565.583,1478.187
		c-134.384,0-243.713-109.328-243.713-243.713s109.329-243.713,243.713-243.713c134.389,0,243.722,109.328,243.722,243.713
		S699.972,1478.187,565.583,1478.187z"/>
	<path fill="#333333" d="M1767.072,581.748l-74.516-50.033c4.279-27.761,5.383-55.804,3.291-83.786l78.155-44.071
		c13.328-7.519,19.229-23.595,13.929-37.949l-40.059-108.459c-5.301-14.359-20.233-22.725-35.248-19.79l-88.043,17.302
		c-16.598-22.621-35.662-43.215-56.956-61.531l24.099-86.456c4.105-14.741-3.088-30.278-16.984-36.679l-105.002-48.368
		c-13.902-6.418-30.392-1.774-38.919,10.932l-50.038,74.52c-27.703-4.253-55.785-5.375-83.777-3.288l-44.075-78.154
		c-7.522-13.332-23.595-19.233-37.953-13.928l-108.459,40.058c-14.358,5.301-22.738,20.237-19.786,35.253l17.308,88.03
		c-22.625,16.598-43.224,35.666-61.54,56.964l-86.446-24.104c-14.741-4.092-30.282,3.092-36.684,16.985l-48.372,105.002
		c-6.401,13.897-1.766,30.387,10.932,38.918l74.511,50.038c-4.274,27.765-5.379,55.808-3.283,83.781l-78.15,44.072
		c-13.328,7.519-19.229,23.599-13.928,37.949l40.058,108.463c5.301,14.354,20.256,22.76,35.253,19.786l88.03-17.303
		c16.585,22.612,35.648,43.206,56.961,61.535l-24.104,86.451c-4.105,14.737,3.087,30.283,16.984,36.684l105.006,48.366
		c13.902,6.404,30.387,1.77,38.919-10.938l50.042-74.512c27.695,4.257,55.781,5.375,83.777,3.288l44.076,78.161
		c5.656,10.036,16.176,15.863,27.151,15.863c3.601,0,7.253-0.626,10.792-1.936l108.469-40.06
		c14.357-5.301,22.738-20.238,19.785-35.253l-17.307-88.039c22.611-16.589,43.206-35.657,61.535-56.96l86.451,24.104
		c14.74,4.092,30.282-3.088,36.684-16.985l48.363-105.006C1784.404,606.769,1779.777,590.28,1767.072,581.748z M1684.125,675.479
		l-80.555-22.459c-12.275-3.409-25.378,0.97-33.118,11.08c-21.507,28.091-47.402,52.06-76.968,71.245
		c-10.688,6.932-16.08,19.664-13.619,32.161l16.124,82.021l-58.651,21.664l-41.059-72.815c-5.574-9.884-16.002-15.859-27.143-15.859
		c-1.361,0-2.735,0.087-4.113,0.27c-34.727,4.623-70.428,3.214-104.798-4.109c-12.445-2.656-25.269,2.535-32.37,13.111
		l-46.624,69.418l-56.772-26.147l22.455-80.555c3.418-12.267-0.966-25.382-11.08-33.122c-28.092-21.503-52.06-47.398-71.245-76.963
		c-6.927-10.685-19.655-16.072-32.161-13.619l-82.012,16.119l-21.664-58.651l72.811-41.058
		c11.093-6.257,17.264-18.629,15.585-31.252c-4.636-34.957-3.253-70.214,4.113-104.793c2.653-12.458-2.539-25.273-13.106-32.374
		l-69.427-46.62l26.155-56.777l80.551,22.459c12.264,3.405,25.383-0.97,33.123-11.084c21.48-28.073,47.38-52.042,76.971-71.245
		c10.685-6.931,16.076-19.664,13.615-32.161l-16.123-82.012l58.651-21.664l41.058,72.81c6.254,11.093,18.615,17.272,31.257,15.589
		c34.727-4.609,70.419-3.209,104.798,4.113c12.44,2.648,25.264-2.539,32.369-13.11l46.62-69.432l56.773,26.151l-22.456,80.563
		c-3.418,12.271,0.971,25.387,11.084,33.123c28.065,21.481,52.034,47.372,71.232,76.958c6.936,10.685,19.668,16.059,32.156,13.62
		l82.029-16.12l21.664,58.647l-72.818,41.058c-11.094,6.258-17.264,18.629-15.585,31.252c4.64,34.97,3.257,70.228-4.114,104.793
		c-2.66,12.458,2.531,25.277,13.106,32.378l69.432,46.62L1684.125,675.479z"/>
	<path fill="#333333" d="M1324.474,212.717c-31.026,0-61.63,5.492-90.97,16.329c-135.858,50.172-205.564,201.52-155.392,337.383
		c37.927,102.701,136.95,171.707,246.409,171.716c0.009,0,0.009,0,0.018,0c31.014,0,61.617-5.492,90.952-16.329
		c135.854-50.172,205.568-201.52,155.396-337.375C1532.951,281.727,1433.928,212.717,1324.474,212.717z M1393.896,663.338
		c-22.402,8.275-45.736,12.467-69.357,12.467c0,0-0.009,0-0.014,0c-83.477-0.004-159.005-52.638-187.936-130.971
		c-38.266-103.619,14.898-219.048,118.514-257.311c22.398-8.275,45.736-12.467,69.37-12.467
		c83.478,0,159.001,52.638,187.936,130.979C1550.672,509.646,1497.503,625.071,1393.896,663.338z"/>
</g>
<g>
</g>
<g>
</g>
<g>
</g>
<g>
</g>
<g>
</g>
<g>
</g>
</svg>
