<?xml version="1.0" encoding="UTF-8"?>
<svg xmlns="http://www.w3.org/2000/svg" xmlns:xlink="http://www.w3.org/1999/xlink" viewBox="0 0 48 48" width="48px" height="48px">
<g id="surface228323128">
<path style=" stroke:none;fill-rule:nonzero;fill:rgb(40.000001%,40.000001%,40.000001%);fill-opacity:1;" d="M 34 12 L 28 6 L 20 6 L 14 12 L 11 12 L 11 40 C 11 42.199219 12.800781 44 15 44 L 33 44 C 35.199219 44 37 42.199219 37 40 L 37 12 Z M 34 12 "/>
<path style=" stroke:none;fill-rule:nonzero;fill:rgb(20%,20%,20%);fill-opacity:1;" d="M 24.5 39 L 23.5 39 C 22.699219 39 22 38.300781 22 37.5 L 22 18.5 C 22 17.699219 22.699219 17 23.5 17 L 24.5 17 C 25.300781 17 26 17.699219 26 18.5 L 26 37.5 C 26 38.300781 25.300781 39 24.5 39 Z M 31.5 39 C 30.699219 39 30 38.300781 30 37.5 L 30 18.5 C 30 17.699219 30.699219 17 31.5 17 C 32.300781 17 33 17.699219 33 18.5 L 33 37.5 C 33 38.300781 32.300781 39 31.5 39 Z M 16.5 39 C 15.699219 39 15 38.300781 15 37.5 L 15 18.5 C 15 17.699219 15.699219 17 16.5 17 C 17.300781 17 18 17.699219 18 18.5 L 18 37.5 C 18 38.300781 17.300781 39 16.5 39 Z M 16.5 39 "/>
<path style=" stroke:none;fill-rule:nonzero;fill:rgb(80.000001%,80.000001%,80.000001%);fill-opacity:1;" d="M 11 8 L 37 8 C 38.101562 8 39 8.898438 39 10 L 39 12 L 9 12 L 9 10 C 9 8.898438 9.898438 8 11 8 Z M 11 8 "/>
</g>
</svg>
